<svg width="19" height="14" viewBox="0 0 19 14" fill="none" xmlns="http://www.w3.org/2000/svg">
<path fill-rule="evenodd" clip-rule="evenodd" d="M0 6.00482C0 2.69476 3.80557 0.0114288 8.5 0.0114288C13.1944 0.0114288 17 2.69476 17 6.00482C17 7.28846 16.4277 8.47784 15.4532 9.45303L18.4399 11.5575C19.0053 11.9559 19.0053 12.7941 18.44 13.1924L18.1136 13.4224C17.7681 13.6658 17.307 13.6658 16.9616 13.4225L13.3915 10.907C12.0083 11.5945 10.321 11.9982 8.5 11.9982C3.80557 11.9982 0 9.31489 0 6.00482ZM8.49996 10.2858C5.15218 10.2858 2.42854 8.36536 2.42854 6.00482C2.42854 3.64428 5.15218 1.72382 8.49996 1.72382C11.8477 1.72382 14.5714 3.64428 14.5714 6.00482C14.5714 8.36536 11.8477 10.2858 8.49996 10.2858Z" fill="#222222"/>
</svg>
